<svg id="Layer_1" data-name="Layer 1" xmlns="http://www.w3.org/2000/svg" viewBox="0 0 148.4588 69.8867"><defs><style>.cls-1{fill:#fff;fill-rule:evenodd;}</style></defs><path class="cls-1" d="M96.9,12.34,92.634,14.1085c-.627-2.1824-4.4577-8.8451-6.2422-9.6753-1.4066-.6162-4.9711,1.6781-6.034,2.1847C77.36,8.0467,75.3465,9.1166,74.095,10.5324L84.7273,5.5776h.3121c-1.9017,4.6928-4.2956,10.2942-4.5775,16.2295a25.5681,25.5681,0,0,0-7.1785-.52,43.36,43.36,0,0,0,.7289-10.66c-1.758,2.0677-1.919,4.897-1.041,10.66a21.7785,21.7785,0,0,0-5.41.3122c0-4.0135.7213-7.8462,0-11.6521Q66.6252,6.15,65.6888,2.3524C68.7261,4.6651,70.3682,8.355,73.7,10.4672l.104-.208C71.06,6.632,70.1007,1.46,64.1282,1q-3.953,5.0453-7.9066,10.0914l-.2081.2081c-1.1492-2.7931-5.1206-4.5127-7.9067-5.7219-1.1921.6662-5.2652,9.5786-6.1381,11.4439.4365,3.87,4.8868,8.8605,6.3461,12.0681.8611,1.8926.1727,4.7969.6242,6.97.55,2.6488,1.96,4.4026,2.705,6.5542h.2081c.3028-1.7654.005-3.4558.8322-4.5775v-.2081q.2082,1.1442.4162,2.2888c.6728,2.2586,1.8952,4.1328,2.2888,6.6582l.2081.1041c1.5328-2.1479,1.7906-8.6664,1.56-12.2762l2.705,1.04c-1.3278,4.5922.98,7.838,2.0807,11.2358l.2081.104c.6011-.9827,1.5822-8.5223,1.3524-10.0914l2.6009.8322h.2081c-1.3018,3.7488.7585,7.8213,2.913,9.4673h.104q.1562-1.9245.3122-3.8493c.3776-1.3762,1.0646-3.15,1.4564-4.7857l2.3929.1041c-.7627,1.564-.0539,2.5459.52,3.7452.7565-.3532,1.1574-1.34,1.7685-1.8726v-.2081q.2081,1.6645.4162,3.3292c.6532,1.6806,1.8981,2.775,2.2888,4.7856l.208.1041c1.9084-3.5322,1.546-5.7633,1.04-10.1955l1.8726-.2081a4.7629,4.7629,0,0,0,2.705,4.9937l.208.2081.104-2.0807c.2029-.6482.8512-1.0675,1.04-1.8727h.104c.1912,1.4166.9851,2.0563,1.4565,3.1211l.3122.2081a7.63,7.63,0,0,0,1.6645-4.5776l.8323.8323,1.04-1.8727.2081-.104c.0166,2.251.9151,2.8688,1.3524,4.2655.4426,1.4134-.0079,2.7384.52,3.8493v.2081h.104c1.5519-1.4718,2.6768-4.49,3.1211-6.97.705-3.9364-.6533-4.2178,1.5605-7.1785L92.738,33.355a46.2239,46.2239,0,0,1-13.0044,3.5373v-.1041c5.6346-1.7692,6.0823-8.3684,2.7049-12.7964,3.1584,1.1231,6.4133,2.034,9.1551,3.6413a52.2583,52.2583,0,0,0,7.2826,3.8493h.104l-1.04-1.7686-.4161-.4161c1.6861-.9112,8.3161-5.5158,9.1551-6.8664,1.5511-2.4968-1.7286-11.5271-2.809-12.38ZM95.0268,33.4591c.4572.65-1.1216,2.4906-1.3524,3.4332h-.2081L92.2178,35.02A6.1627,6.1627,0,0,0,95.0268,33.4591Zm-4.4735,2.2888c.2607.1656.0146.4589-.2081.7282l-.1041.2081-.312-.6242Q90.2411,35.9039,90.5533,35.7479Zm-2.3928.8322c.345.1391-.54,1.35-.6242,1.8727l-.2081-.3121-.9364-.9364Zm-3.0171.8323c.1109.39-1.1144,1.478-1.2484,2.4969l-1.9767-1.6645-.208-.1041ZM51.3318,9.3228l4.2656,2.809,1.1443,3.8493,2.913,6.45.2081.104c1.2823-3.32-1.8862-8.12-2.1848-10.82C59.91,8.7819,63.5242,5.4407,64.3363,1.3121l1.04.8322c-1.7252,3.7116.2868,16.2557,1.6647,19.4548A43.7719,43.7719,0,0,0,54.4529,24.72q-.624-3.5368-1.2484-7.0744a49.899,49.899,0,0,0-5.0977-11.548ZM48.835,28.3613l-.208.1041a27.791,27.791,0,0,0-2.809-8.3229c-.3837-.7676-1.7459-2.5213-1.4565-3.6412l1.1444-1.9767a24.4255,24.4255,0,0,0,2.3928-7.2825l.8323,4.2655,2.3928,7.5946c.69,2.1377,2.1982,3.9122,2.7049,5.93C52.1957,25.5579,49.5865,26.9331,48.835,28.3613Zm3.1211,5.93-.2081.104A14.9233,14.9233,0,0,0,50.0834,29.61c1.03.7932,1.77,2.0488,3.0171,2.6008l.104.2082A4.0135,4.0135,0,0,0,51.9561,34.2914Zm3.6413,2.4968-1.6647-3.9533,2.3929,1.2484C56.549,34.7433,55.7758,35.7806,55.5974,36.7882ZM61.84,38.869a7.13,7.13,0,0,1-1.4565-3.0171l2.2888.8323Q62.2556,37.7765,61.84,38.869Zm-8.2188-8.9471-3.9534-1.5606h-.2081c1.834-1.6712,9.9324-4.033,13.0045-4.6816l6.1381-.8322h1.6646v.104a7.5958,7.5958,0,0,0-3.7453,3.1211C63.59,30.2352,64.79,33.2232,68.29,35.9559,62.6322,34.9515,58.1694,32.1082,53.6207,29.9219ZM68.9139,40.3254H68.81l-1.4566-2.3928,3.2251.52C70.0038,39.07,69.2635,39.4775,68.9139,40.3254Zm5.93-.6242-.104.2081-.52-1.2484h1.56Zm3.3291,1.1444h-.208l-1.04-2.0807v-.104l1.9767-.2081h.4161A7.3557,7.3557,0,0,0,78.173,40.8456ZM67.2493,29.9219l3.4332.3121c.5239.5379.5357,1.5186,1.1444,1.9766,1.9754,1.4867,5.5217.3195,6.0341-1.6645l4.37-.4162h.104C82.2676,39.8605,67.5485,37.403,67.2493,29.9219Zm10.6117-.52c-1.3305-1.37-3.1087-2.89-5.618-1.3524l-1.04,1.04-2.809.2081c-1.78.018-.9659-1.4953-.4162-2.3929,1.0732-1.7517,3.1947-2.9993,4.9938-4.0573,5.3753-.084,8.7694,2.1294,9.3632,6.8663ZM81.19,21.9111c1.6682-4.8125,4.282-8.9248,4.1614-15.8134,1.4019,1.2748,4.6606,7.0421,5.5139,8.9471A29.4068,29.4068,0,0,0,87.64,23.4717,18.98,18.98,0,0,0,81.19,21.9111Zm7.0744,1.8727c.7493-1.1957,4.3813-8.3589,4.9937-8.739,3.044-1.889,7.1-2.1592,9.8834-4.2654.1461.49-2.1658,2.7819-2.705,3.5371l-4.6815,7.5946q-.9882,2.0286-1.9767,4.0574Zm12.6923,1.6646L97.3156,29.09a8.0756,8.0756,0,0,0-3.1211-2.809c.4236-1.392,1.9834-2.3583,2.809-3.4331,2.073-2.6989,6.1343-7.87,6.8663-11.4439l-.104,3.8493.8323,7.1784ZM74.0117,10.5713l.0006.0551c.0268-.0316.0551-.0627.0827-.094Zm64.606,11.4439-3.2251,1.7686q1.1444-2.1844,2.2888-4.3695a49.6215,49.6215,0,0,0-2.6009-7.4906,1.0757,1.0757,0,0,0-.52-.4161c-3.1444.1848-6.0823,4.7113-8.3229,6.3462.7529-2.258-3.2772-6.95-4.37-8.531L120.62,9.1147c-1.4989.8248-5.3424,5.09-5.722,6.7624-.4923,2.1692.4723,5.3265,1.04,6.97v.104c-1.9984-.4131-3.12-1.8438-5.41-1.1444-.6358,1.0807-.3578,3.21-.3121,4.6816.0435,1.3981-.4853,2.9134-.3121,3.9534.6147,3.69,6.302,6.695,8.0108,9.3631h.312A25.5115,25.5115,0,0,0,114.69,33.147l-2.2887-3.1211c-.4092-1.3834.1322-3.6314-.104-4.9937l3.121,5.41,3.1211,3.7452c.8606.8241-.6265,3.5526-.1041,5.41.3848,1.3679,1.1077,4.1539,2.2888,4.7856,1.2257.457,6.5076-2.8824,7.0744-3.6412q.3122-.78.6242-1.5606l3.8493-1.56,9.7794-5.0977,4.0574-1.8727,3.5372-7.0744V23.16Zm-.104,1.1443,8.0107.9364-6.6583,3.1211c-2.9919,1.7444-5.6659,3.8315-8.5308,5.6179q1.7163-3.849,3.4331-7.6987Zm-12.4843-4.9937c-1.9224,1.4251-2.4089,4.3269-3.6412,6.45v.2081q-.052-2.6528-.1041-5.3059c-.5135-3.2075-1.3042-5.644-1.9766-8.3228C121.4542,12.25,125.5144,16.8239,126.0294,18.1658Zm-8.6349-2.9129,2.2887-3.1211q.1041,2.0805.2081,4.1614.26,3.0688.52,6.1381c.3167,1.6748,1.1913,3.7985.8323,5.3058h-.104c-1.3885-1.7523-1.9965-4.107-4.6817-4.5776C116.4581,23.16,117.2128,15.73,117.3945,15.2529ZM114.69,25.9685c-.6986-.8829-2.13-1.5646-2.4968-2.7049L116.25,24.72c1.63,1.0485,2.8783,2.769,4.5775,3.8493l-1.6645,4.9937h-.1041A25.5075,25.5075,0,0,0,114.69,25.9685ZM122.076,43.03a15.79,15.79,0,0,0,2.705-5.7219V36.58h-.2081c-.9978,2.0779-2.4875,3.6-3.1211,6.2422l-2.6008-3.1211q1.7683-4.005,3.5372-8.0107c1.3584-3.4479,2.5384-6.9486,3.9534-10.1955q.468-1.2483.9362-2.4968c1.4591-2.1417,4.2024-3.31,5.618-5.5139l-2.1848,6.1381c-1.426,4.0274-3.0977,7.5956-4.5775,11.34l-1.7686,5.3059v.104l.208.104,2.0807-3.2251c1.9235-3.2882,3.1217-6.8929,4.5776-10.6116.8636-2.2059,2.1325-4.5612,2.1848-7.4906l.208-.104,1.7686,4.37c-.3063,2.1462-2.12,4.2925-2.913,6.2421C130.5045,30.5154,126.9941,41.7769,122.076,43.03Zm22.0556-12.5882-3.9533,1.7685c-3.7511,2.22-7.7833,4.1331-11.4439,6.3462l2.2887-5.2018,4.2655-2.1847,11.756-7.0744ZM2.123,15.773l-.6242.3121-.3121.3122a2.294,2.294,0,0,0,1.1444,1.04c.2468,6.9354,3.1507,11.9887,4.5776,17.8941a2.693,2.693,0,0,0,1.8726.6242c.6914-1.9046.0651-4.5243.4161-6.8663q.26-4.4211.52-8.843h.104l2.4968,7.9067q.3642,2.0284.7283,4.0573a2.2211,2.2211,0,0,0,1.7686.9364l.208-.104q1.0853-4.9609,2.1706-9.9226l.0142-.2729v.208l-.0142.0649q-.2008,3.8686-.4019,7.7378c-.72,4.74-.3157,10.2288-.3122,15.3973a2.0029,2.0029,0,0,0,1.1444.52h.3122c1.23-.73,1.6848-4.9306,2.1847-6.6582,1.4128-4.8831,2.1912-9.65,3.7453-14.669l1.5605-4.7857c.2894-.1562.8636,2.4726,1.04,3.017.7063,2.1752,1.3212,4.7421,1.8727,7.2825q.26,1.9245.52,3.8493c.3.4589.7749.5531,1.3524.7283l.4162-.2081q.3122-3.2767.6242-6.5542c.2681-1.7865-.3972-3.4457.2081-4.89V23.68c.7661,1.7723.3789,3.4067,2.1847,4.1615h.52a23.9859,23.9859,0,0,0,1.8726-7.1785l1.8727-.208h.208q.0522-.26.1041-.52C35.022,18.22,30.43,18.774,25.9472,18.1658ZM7.4288,30.338h-.104q-.7281-2.6526-1.4565-5.3058a62.271,62.271,0,0,0-3.121-7.4906L8.3652,18.686C7.2614,21.6334,7.3817,26.6411,7.4288,30.338Zm6.7624-1.7686q-1.6646-4.7852-3.3292-9.5712l5.2018.6242h.2081Q15.2317,24.0954,14.1912,28.5694Zm4.0573,12.2762v-5.41q.3642-5.4094.7283-10.82-.0521-2.4447-.1041-4.89l4.7857.52C22.3907,27.001,18.9823,33.7484,18.2485,40.8456ZM33.4377,20.4547l2.1848.104v.104a11.4871,11.4871,0,0,0-2.0807,3.9534l-.2081.104a15.048,15.048,0,0,0-1.04-4.1614Zm-3.3291.208a30.69,30.69,0,0,0-.6242,6.8664q-1.1442-3.4849-2.2888-6.97Zm71.6805,23.72-3.6412,1.5606a70.2761,70.2761,0,0,1-7.9068,3.2251c-7.23,2.1982-19.553,2.7134-27.2573.7282L52.4763,47.4c-1.0746-.3211-3.414-1.425-4.6816-.9362-.8043.55.2586,4.3946.52,5.6179l3.8494,15.7093a2.5107,2.5107,0,0,0,1.7685,0c.9842-1.4829.1023-4.56-.104-6.2421a96.5553,96.5553,0,0,1-.8322-12.1722h.104c.6358,1.9251,2.9182,10.9284,4.1614,11.652.6384.2518,1.2559-.2191,1.6646-.52a21.4725,21.4725,0,0,0,.3121-6.2422h.104L61.4233,68.415l.52.3122,1.3525-.3122c.3989-.6554.8847-14.7155.6242-16.3335,1.1768.8952,2.708,8.3022,3.017,10.3a2.0445,2.0445,0,0,0,1.7686.104c.6924-1.0166,1.5109-6.3971,1.5606-7.9067h.104c.3664,2.2564.904,5.0633,1.3524,7.4905l.52.3122,1.2485-.3122c1.2388-.601,1.7467-5.0488,1.8726-6.6582h.104c.6972,4.9433.6782,10.7854,1.6646,15.2933A1.6038,1.6038,0,0,0,78.7972,70.6l.3122-.104c.0454-6.0968.3385-12.0777.8323-17.6861h.104c.3162,1.8838.3676,4.9452,1.04,7.0745a2.1467,2.1467,0,0,0,1.4564-.1041c1.2806-.6225.8933-2.7158,1.4565-4.0574v-.2081q.3122,2.7047.6242,5.41c.3955.6695,1.2293.33,1.8727.104.58-1.0283,1.4116-7.3134,1.5606-8.7389l.208-.1041q.4682,2.34.9363,4.6816c.5435,2.984.2868,6.1867,1.3525,8.5309a2.439,2.439,0,0,0,1.8726-.3121q.3122-3.3808.6243-6.7623l1.1443-7.5946h.1041c.2682,1.4668.2206,4.458,1.3524,5.0977a2.4339,2.4339,0,0,0,1.7686-.208,13.4423,13.4423,0,0,0,1.1444-5.826c.9067,1.088.4248,3.0689,1.6646,3.8493a2.7565,2.7565,0,0,0,1.7686-.6242,31.1381,31.1381,0,0,0,.2081-8.4269Z" transform="translate(-1.1867 -1)"/></svg>